<?xml version="1.0" encoding="UTF-8" standalone="no"?>
<!-- Generator: Adobe Illustrator 16.0.0, SVG Export Plug-In . SVG Version: 6.00 Build 0)  -->

<svg
   xmlns:dc="http://purl.org/dc/elements/1.1/"
   xmlns:cc="http://creativecommons.org/ns#"
   xmlns:rdf="http://www.w3.org/1999/02/22-rdf-syntax-ns#"
   xmlns:svg="http://www.w3.org/2000/svg"
   xmlns="http://www.w3.org/2000/svg"
   xmlns:sodipodi="http://sodipodi.sourceforge.net/DTD/sodipodi-0.dtd"
   xmlns:inkscape="http://www.inkscape.org/namespaces/inkscape"
   version="1.1"
   id="Layer_1"
   x="0px"
   y="0px"
   width="195.574px"
   height="96.744px"
   viewBox="0 0 195.574 96.744"
   enable-background="new 0 0 195.574 96.744"
   xml:space="preserve"
   sodipodi:docname="abxy.svgz.svg"
   inkscape:version="0.92.4 (5da689c313, 2019-01-14)"><metadata
   id="metadata563"><rdf:RDF><cc:Work
       rdf:about=""><dc:format>image/svg+xml</dc:format><dc:type
         rdf:resource="http://purl.org/dc/dcmitype/StillImage" /><dc:title></dc:title></cc:Work></rdf:RDF></metadata><defs
   id="defs561" /><sodipodi:namedview
   pagecolor="#ffffff"
   bordercolor="#666666"
   borderopacity="1"
   objecttolerance="10"
   gridtolerance="10"
   guidetolerance="10"
   inkscape:pageopacity="0"
   inkscape:pageshadow="2"
   inkscape:window-width="1920"
   inkscape:window-height="1028"
   id="namedview559"
   showgrid="false"
   inkscape:zoom="7.736202"
   inkscape:cx="93.068925"
   inkscape:cy="48.372002"
   inkscape:window-x="1912"
   inkscape:window-y="-8"
   inkscape:window-maximized="1"
   inkscape:current-layer="Layer_1" />
<g
   id="g488">
	<g
   id="g459">
		<g
   id="A_1_">
			<path
   fill="#141414"
   d="M23.688,0c13.1,0,23.705,10.606,23.705,23.682c0,13.077-10.605,23.682-23.705,23.682     C10.606,47.364,0,36.759,0,23.682C0,10.606,10.606,0,23.688,0z"
   id="path452"
   style="fill:#39b54a;fill-opacity:1" />
		</g>
		<g
   enable-background="new    "
   id="g457">
			<path
   fill="#39B54A"
   d="M32.448,38.835l-2.778-7.663H17.542l-2.645,7.663H9.416L20.883,8.526h5.583l11.512,30.309H32.448z      M23.658,13.079h-0.129c-0.107,0.847-0.238,1.577-0.45,2.174l-4.137,11.679h9.293l-4.163-11.679     C23.94,14.887,23.789,14.163,23.658,13.079z"
   id="path455"
   style="fill:#000000;fill-opacity:1" />
		</g>
	</g>
	<g
   id="g468">
		<g
   id="B_1_">
			<path
   fill="#141414"
   d="M73.084,0c13.097,0,23.703,10.61,23.703,23.687S86.181,47.369,73.084,47.369     c-13.085,0-23.69-10.606-23.69-23.683S59.999,0,73.084,0z"
   id="path461"
   style="fill:#c1272d;fill-opacity:1" />
		</g>
		<g
   enable-background="new    "
   id="g466">
			<path
   fill="#C1272D"
   d="M83.288,30.01c0,2.628-0.985,4.783-2.925,6.385c-1.957,1.633-4.47,2.437-7.566,2.437h-9.908V8.53h9.572     c2.898,0,5.194,0.646,6.867,1.884c1.684,1.266,2.523,2.952,2.523,5.089c0,1.646-0.504,3.096-1.5,4.348     c-1.014,1.28-2.322,2.15-3.956,2.67v0.091c2.164,0.274,3.842,1.075,5.069,2.372C82.663,26.311,83.288,27.967,83.288,30.01z      M76.519,16.471c0-1.205-0.454-2.144-1.332-2.795c-0.907-0.649-2.224-0.973-3.979-0.973h-3.277v8.383h3.232     c1.693,0,3.021-0.4,3.955-1.201C76.044,19.084,76.519,17.965,76.519,16.471z M77.953,29.873c0-1.449-0.508-2.585-1.558-3.409     c-1.051-0.814-2.595-1.206-4.674-1.206h-3.79v9.413h4.239c1.801,0,3.212-0.438,4.237-1.308     C77.451,32.508,77.953,31.337,77.953,29.873z"
   id="path464"
   style="fill:#000000;fill-opacity:1" />
		</g>
	</g>
	<g
   id="g477">
		<g
   id="Y_1_">
			<path
   fill="#141414"
   d="M171.869,0c13.1,0,23.705,10.614,23.705,23.69c0,13.077-10.605,23.682-23.705,23.682     c-13.082,0-23.688-10.605-23.688-23.682C148.181,10.614,158.787,0,171.869,0z"
   id="path470"
   style="fill:#fcee21;fill-opacity:1" />
		</g>
		<g
   enable-background="new    "
   id="g475">
			<path
   fill="#FCEE21"
   d="M174.266,27.847v10.987h-4.997V27.97l-9.847-19.436h5.721l6.095,12.646     c0.213,0.411,0.339,0.783,0.438,1.121c0.099,0.336,0.176,0.61,0.256,0.825h0.045c0.151-0.642,0.373-1.275,0.695-1.903     l6.323-12.689h5.319L174.266,27.847z"
   id="path473"
   style="fill:#000000;fill-opacity:1" />
		</g>
	</g>
	<g
   id="g486">
		<g
   id="X_1_">
			<path
   fill="#141414"
   d="M122.47,0c13.105,0,23.711,10.61,23.711,23.687s-10.605,23.683-23.711,23.683     c-13.076,0-23.683-10.606-23.683-23.683S109.394,0,122.47,0z"
   id="path479"
   style="fill:#0071bc;fill-opacity:1" />
		</g>
		<g
   enable-background="new    "
   id="g484">
			<path
   fill="#0071BC"
   d="M129.59,38.831l-6.406-11.019c-0.132-0.288-0.242-0.532-0.309-0.763     c-0.049-0.258-0.121-0.502-0.212-0.763h-0.092c-0.116,0.275-0.19,0.523-0.267,0.775c-0.077,0.222-0.187,0.462-0.336,0.75     l-6.523,11.019h-6.123l10.137-15.189L110.2,8.53h6.186l5.401,9.954c0.519,0.885,0.861,1.64,1.048,2.266h0.073     c0.305-0.793,0.537-1.311,0.657-1.56c0.109-0.237,2.209-3.797,6.27-10.66h5.674l-9.459,15.02l9.581,15.281H129.59z"
   id="path482"
   style="fill:#000000;fill-opacity:1" />
		</g>
	</g>
</g>
<g
   id="g526">
	<g
   id="g497">
		<g
   id="A_2_">
			<path
   fill="#FFFFFF"
   d="M23.688,49.376c13.1,0,23.705,10.606,23.705,23.682c0,13.077-10.605,23.682-23.705,23.682     C10.606,96.74,0,86.135,0,73.058C0,59.982,10.606,49.376,23.688,49.376z"
   id="path490" />
		</g>
		<g
   enable-background="new    "
   id="g495">
			<path
   fill="#C64AB5"
   d="M32.448,88.211l-2.778-7.663H17.542l-2.645,7.663H9.416l11.467-30.309h5.583l11.512,30.309H32.448z      M23.658,62.455h-0.129c-0.107,0.847-0.238,1.577-0.45,2.174l-4.137,11.679h9.293l-4.163-11.679     C23.94,64.263,23.789,63.539,23.658,62.455z"
   id="path493" />
		</g>
	</g>
	<g
   id="g506">
		<g
   id="B_2_">
			<path
   fill="#FFFFFF"
   d="M73.084,49.374c13.097,0,23.703,10.61,23.703,23.687S86.181,96.743,73.084,96.743     c-13.085,0-23.69-10.606-23.69-23.683S59.999,49.374,73.084,49.374z"
   id="path499" />
		</g>
		<g
   enable-background="new    "
   id="g504">
			<path
   fill="#3ED8D2"
   d="M83.288,79.383c0,2.628-0.985,4.783-2.925,6.385c-1.957,1.633-4.47,2.437-7.566,2.437h-9.908V57.904     h9.572c2.898,0,5.194,0.646,6.867,1.884c1.684,1.266,2.523,2.952,2.523,5.089c0,1.646-0.504,3.096-1.5,4.348     c-1.014,1.28-2.322,2.15-3.956,2.67v0.091c2.164,0.274,3.842,1.075,5.069,2.372C82.663,75.684,83.288,77.34,83.288,79.383z      M76.519,65.844c0-1.205-0.454-2.144-1.332-2.795c-0.907-0.649-2.224-0.973-3.979-0.973h-3.277v8.383h3.232     c1.693,0,3.021-0.4,3.955-1.201C76.044,68.458,76.519,67.338,76.519,65.844z M77.953,79.247c0-1.449-0.508-2.585-1.558-3.409     c-1.051-0.814-2.595-1.206-4.674-1.206h-3.79v9.413h4.239c1.801,0,3.212-0.438,4.237-1.308     C77.451,81.881,77.953,80.71,77.953,79.247z"
   id="path502" />
		</g>
	</g>
	<g
   id="g515">
		<g
   id="Y_2_">
			<path
   fill="#FFFFFF"
   d="M171.869,49.372c13.1,0,23.705,10.614,23.705,23.69c0,13.077-10.605,23.682-23.705,23.682     c-13.082,0-23.688-10.605-23.688-23.682C148.181,59.986,158.787,49.372,171.869,49.372z"
   id="path508" />
		</g>
		<g
   enable-background="new    "
   id="g513">
			<path
   fill="#0311DE"
   d="M174.266,77.219v10.987h-4.997V77.342l-9.847-19.436h5.721l6.095,12.646     c0.213,0.411,0.339,0.783,0.438,1.121c0.099,0.336,0.176,0.61,0.256,0.825h0.045c0.151-0.642,0.373-1.275,0.695-1.903     l6.323-12.689h5.319L174.266,77.219z"
   id="path511" />
		</g>
	</g>
	<g
   id="g524">
		<g
   id="X_2_">
			<path
   fill="#FFFFFF"
   d="M122.47,49.374c13.105,0,23.711,10.61,23.711,23.687s-10.605,23.683-23.711,23.683     c-13.076,0-23.683-10.606-23.683-23.683S109.394,49.374,122.47,49.374z"
   id="path517" />
		</g>
		<g
   enable-background="new    "
   id="g522">
			<path
   fill="#FF8E43"
   d="M129.59,88.205l-6.406-11.019c-0.132-0.288-0.242-0.532-0.309-0.763     c-0.049-0.258-0.121-0.502-0.212-0.763h-0.092c-0.116,0.275-0.19,0.523-0.267,0.775c-0.077,0.222-0.187,0.462-0.336,0.75     l-6.523,11.019h-6.123l10.137-15.189l-9.26-15.111h6.186l5.401,9.954c0.519,0.885,0.861,1.64,1.048,2.266h0.073     c0.305-0.793,0.537-1.311,0.657-1.56c0.109-0.237,2.209-3.797,6.27-10.66h5.674l-9.459,15.02l9.581,15.281H129.59z"
   id="path520" />
		</g>
	</g>
</g>
<g
   id="g528">
</g>
<g
   id="g530">
</g>
<g
   id="g532">
</g>
<g
   id="g534">
</g>
<g
   id="g536">
</g>
<g
   id="g538">
</g>
<g
   id="g540">
</g>
<g
   id="g542">
</g>
<g
   id="g544">
</g>
<g
   id="g546">
</g>
<g
   id="g548">
</g>
<g
   id="g550">
</g>
<g
   id="g552">
</g>
<g
   id="g554">
</g>
<g
   id="g556">
</g>
</svg>